<?xml version="1.0" encoding="UTF-8"?>
<!DOCTYPE svg PUBLIC "-//W3C//DTD SVG 1.1//EN" "http://www.w3.org/Graphics/SVG/1.1/DTD/svg11.dtd">
<!-- Creator: CorelDRAW 2021 (64-Bit) -->
<svg xmlns="http://www.w3.org/2000/svg" xml:space="preserve" width="97.2509mm" height="103.096mm" version="1.1" style="shape-rendering:geometricPrecision; text-rendering:geometricPrecision; image-rendering:optimizeQuality; fill-rule:evenodd; clip-rule:evenodd"
viewBox="0 0 9722.14 10306.43"
 xmlns:xlink="http://www.w3.org/1999/xlink"
 xmlns:xodm="http://www.corel.com/coreldraw/odm/2003">
 <defs>
  <style type="text/css">
   <![CDATA[
    .fil0 {fill:#6E0488;fill-rule:nonzero}
   ]]>
  </style>
 </defs>
 <g id="Layer_x0020_1">
  <metadata id="CorelCorpID_0Corel-Layer"/>
  <path class="fil0" d="M274.58 5998.17l3924.59 4044.67c169.87,175.73 401.25,263.59 656.05,263.59l11.72 0c254.8,0 486.17,-87.86 656.04,-263.59l3924.59 -4044.67c366.1,-351.45 366.1,-916.7 0,-1265.24 -366.1,-348.52 -957.72,-348.52 -1323.82,0l-2325.46 2430.89 0 -6267.62c0,-494.97 -418.82,-896.21 -937.21,-896.21 -527.18,0 -937.22,401.25 -937.22,896.21l0 6267.62 -2325.46 -2430.89c-366.1,-348.52 -957.72,-348.52 -1323.82,0 -366.1,348.52 -366.1,913.77 0,1265.24z"/>
 </g>
</svg>
