<?xml version="1.0" encoding="UTF-8"?>
<!DOCTYPE svg PUBLIC "-//W3C//DTD SVG 1.1//EN" "http://www.w3.org/Graphics/SVG/1.1/DTD/svg11.dtd">
<!-- Creator: CorelDRAW 2021 (64-Bit) -->
<svg xmlns="http://www.w3.org/2000/svg" xml:space="preserve" width="116.489mm" height="102.746mm" version="1.1" style="shape-rendering:geometricPrecision; text-rendering:geometricPrecision; image-rendering:optimizeQuality; fill-rule:evenodd; clip-rule:evenodd"
viewBox="0 0 11655.6 10280.52"
 xmlns:xlink="http://www.w3.org/1999/xlink"
 xmlns:xodm="http://www.corel.com/coreldraw/odm/2003">
 <defs>
  <style type="text/css">
   <![CDATA[
    .fil0 {fill:#211F1F}
   ]]>
  </style>
 </defs>
 <g id="Layer_x0020_1">
  <metadata id="CorelCorpID_0Corel-Layer"/>
  <path class="fil0" d="M10798.28 6731.51l-9948.25 -0.98c-86.1,1276.9 23.26,2411.69 1128.88,3134.6 495.48,323.97 996.8,415.14 1692.39,415.22l4271.05 0.16c2102.74,0.92 3052.88,-1224.37 2855.93,-3549z"/>
  <path class="fil0" d="M888.24 3994.89l9873.11 -3.43c-175.63,-3841.07 -5448.8,-5109.59 -8301.66,-2925.65 -768.34,588.18 -1501.32,1464.96 -1571.45,2929.08z"/>
  <path class="fil0" d="M819.35 4452.47c-1089.84,143.68 -1070.96,1629.11 -71.31,1804.25 349.32,61.2 7551.55,19.13 8429.74,19.17 459.12,0.02 1274.01,46.98 1691.79,-14.03 276.87,-40.43 368.82,-128.2 527.67,-281.54 518.23,-500.24 208.91,-1397.01 -501.98,-1536.33l-5035.48 1.22c-535.92,-0.01 -1176.87,-34.06 -1694.31,-8.99 -774.82,37.55 -2898.9,-42.72 -3346.12,16.24z"/>
  <path class="fil0" d="M3459.33 4713.24c-102.13,86.65 138.16,68.85 -141.19,70.59l0.07 246.91 141.12 0.08 0 705.88c178.66,153.83 86.82,247.08 529.47,247.08l0 -211.61c-6.61,-5.42 -20.21,-16.64 -23.95,-9.22 -3.78,7.49 -19.21,-7.04 -24.46,-8.57l-123.09 -35.91c-161.57,-90.07 -110.87,-480.67 -110.87,-687.73l458.87 0.04c0,606.76 -109.75,953 529.47,953l-48.43 -229.4c-113.66,-33.15 -190.66,-16.76 -226.79,-224.13 -22.18,-127.31 -7.17,-392.99 -7.17,-534.82 425.3,0 308.92,36.37 317.68,-176.31 -60.48,-49.58 -240.57,-35.47 -317.5,-35.47l-0.2 -282.21 -247.06 -0.19 0 282.4 -458.14 0 -0.75 -282.21 -247.07 -0.19 0 211.98z"/>
 </g>
</svg>
