<?xml version="1.0" encoding="UTF-8"?>
<!DOCTYPE svg PUBLIC "-//W3C//DTD SVG 1.1//EN" "http://www.w3.org/Graphics/SVG/1.1/DTD/svg11.dtd">
<!-- Creator: CorelDRAW 2021 (64-Bit) -->
<svg xmlns="http://www.w3.org/2000/svg" xml:space="preserve" width="102.117mm" height="183.856mm" version="1.1" style="shape-rendering:geometricPrecision; text-rendering:geometricPrecision; image-rendering:optimizeQuality; fill-rule:evenodd; clip-rule:evenodd"
viewBox="0 0 10213.34 18388.53"
 xmlns:xlink="http://www.w3.org/1999/xlink"
 xmlns:xodm="http://www.corel.com/coreldraw/odm/2003">
 <defs>
  <style type="text/css">
   <![CDATA[
    .fil0 {fill:black}
   ]]>
  </style>
 </defs>
 <g id="Layer_x0020_1">
  <metadata id="CorelCorpID_0Corel-Layer"/>
  <g id="_3090815916304">
   <path class="fil0" d="M2487.99 18388.53l5221.44 0c501.43,0 473.84,-432.14 535.72,-883.14l429.11 -3827.5 -7151.1 0c0,424.31 232.91,1941.79 285.36,2552.38 34.79,405.03 84.67,844.61 143.75,1275.12 61.88,451 34.29,883.14 535.72,883.14z"/>
   <path class="fil0" d="M4644.68 2099.92l0 3008.01 -3802.57 0c-360.87,0 -440.53,195.7 -552.65,468.94 -149.06,363.26 -646.45,1290.46 155.37,1290.46l9364.53 0c781.82,0 207.57,-1026.1 98.42,-1290.26 -133.16,-322.23 -171.21,-469.14 -609.21,-469.14l-3745.82 0 0 -3121.51c0,-302.6 -274.52,-478.63 -461.75,-616.58l-1216.93 -939.75c-182.69,-142.65 -445.25,-430.08 -705.01,-430.08 -337.32,0 -515.23,298.08 -405.53,570.16 84.53,209.66 984.12,867.84 1217.73,1058.09 147.6,120.22 519.3,433.19 663.43,471.67z"/>
   <path class="fil0" d="M1296.15 10272.61l7605.13 0c233.29,0 183.03,-371.04 210.05,-584.52l162.54 -1427c41.94,-289.38 152.86,-599.2 -88.81,-599.2l-8172.68 0c-275.2,0 -74.19,682.25 -10.17,1258.77 32.62,293.63 43.18,433.12 77.27,717.3 26.67,222.29 -13.36,634.65 216.68,634.65z"/>
   <path class="fil0" d="M1409.66 12826.57l7378.11 0c0,-634.57 160.39,-1258.98 170.27,-1702.65l-7718.65 0c10.24,459.72 170.27,1047.58 170.27,1702.65z"/>
  </g>
 </g>
</svg>
