<?xml version="1.0" encoding="UTF-8"?>
<!DOCTYPE svg PUBLIC "-//W3C//DTD SVG 1.1//EN" "http://www.w3.org/Graphics/SVG/1.1/DTD/svg11.dtd">
<!-- Creator: CorelDRAW 2021 (64-Bit) -->
<svg xmlns="http://www.w3.org/2000/svg" xml:space="preserve" width="144.51mm" height="144.027mm" version="1.1" style="shape-rendering:geometricPrecision; text-rendering:geometricPrecision; image-rendering:optimizeQuality; fill-rule:evenodd; clip-rule:evenodd"
viewBox="0 0 14436.77 14388.52"
 xmlns:xlink="http://www.w3.org/1999/xlink"
 xmlns:xodm="http://www.corel.com/coreldraw/odm/2003">
 <defs>
  <style type="text/css">
   <![CDATA[
    .fil0 {fill:black}
   ]]>
  </style>
 </defs>
 <g id="Layer_x0020_1">
  <metadata id="CorelCorpID_0Corel-Layer"/>
  <g id="_3090808159328">
   <path class="fil0" d="M9868.89 7505.06c-410.37,0 -737.36,-138.06 -1095.67,-285.98 -963.52,-397.76 -1937.45,-445.19 -2732.07,349.41 -491.46,491.45 -627.36,994.35 -627.36,1684.78 0,350.73 105.72,608.96 200.65,870.82 94.74,261.29 201.76,520.68 303.17,768.32 210.06,512.95 445.57,1010.23 707.18,1463.97 198.31,343.95 391.93,657.87 641.1,966.13 467.32,578.15 970.55,1062.59 1785.29,1062.59 430.23,0 769.06,-318.71 845.91,-648.53l56.39 0c43.69,187.5 166.97,323.87 288.27,444.85 191.41,190.91 433.56,203.68 698.62,203.68 1220.04,0 2180.89,-1798.81 2650.51,-2735.09 60.17,-119.96 109.68,-247.4 168.76,-366.98 62.51,-126.51 112.63,-237.51 165.56,-370.17 291.91,-731.71 511.58,-1111.68 511.58,-1885.16 0,-1104.67 -1005.6,-2086.56 -2030.17,-2086.56 -625.83,0 -914.21,78.26 -1447.49,328.92 -129.93,61.06 -268.5,94.38 -385.31,150.43 76.34,-285.91 652.2,-911.42 958.77,-1127.8 465.09,-328.28 426.45,-184.16 151.68,-969.54 -135.09,-386.12 -302.42,-371.18 -611.26,-138.56 -612.22,461.13 -1012.32,1105.33 -1144.13,1872.93 -25.29,147.21 -28.6,312.87 -59.98,447.56z"/>
   <path class="fil0" d="M4511.49 2570.62c-732.36,60.94 -1295.53,381.42 -1647.73,833.58 -105.8,135.82 -163.32,213.92 -250.71,369.62 -67.11,119.57 -135.31,297.9 -176.88,443.46 -202.82,710.24 103.13,1588.41 -800.64,2949.54 -408.21,614.77 -628.19,718.83 -959.17,1550.34 -301.69,757.95 -353.46,1769.63 -102.66,2641.11 298.96,1038.84 983.83,1894.23 1912.72,2457.78 232.84,141.26 568.29,296.98 858.54,382.12 938.98,275.42 1884.2,261.04 2794.15,-102.86 130.78,-52.3 274.56,-131.56 402.55,-161.38 -29.29,-109.67 -102.42,-169.72 -163.6,-259.35l-501.23 -767.63c-109.93,-187.13 -189.83,-367.6 -299.52,-546.38l-284.46 -589.64c-555.18,-1300.41 -1143.53,-2403.39 -584.35,-3815.09 193.77,-489.17 488.75,-885.66 866.94,-1219.62 349.35,-308.49 992.32,-631.49 1445.56,-669.21l-105.61 -514.72c-36.88,-186.37 -65.63,-370.08 -63.92,-584.61 7.47,-935.93 -381.88,-1629.35 -1132.92,-2081.52 -140.25,-84.45 -271.78,-162.23 -445.76,-202.76 256.36,-484.49 627.96,-920.41 1067.36,-1244.78 476.45,-351.73 506.64,-167.22 212.04,-993.31 -165.73,-464.73 -272,-587.92 -707.77,-263.74 -288.92,214.94 -324.38,250.83 -551.88,519.61 -47.58,56.22 -74.68,70.79 -121.24,132.53 -322.48,427.55 -659.83,1191.77 -659.83,1736.91z"/>
   <path class="fil0" d="M-0 1837.51c0,123.4 68.89,190.57 160.26,234.49 547.02,262.93 1730.23,700.62 2316.46,636.33 780.71,-85.6 1921.98,-625.07 1921.98,-1434.76 0,-1149.89 -1749.49,-1295.54 -2518.1,-967.26 -139.06,59.4 -248.19,113.12 -373.98,189.94 -284.45,173.72 -379.53,224.21 -667.27,460.62 -199.19,163.66 -839.36,675.78 -839.36,880.64z"/>
  </g>
 </g>
</svg>
