<?xml version="1.0" encoding="UTF-8"?>
<!DOCTYPE svg PUBLIC "-//W3C//DTD SVG 1.1//EN" "http://www.w3.org/Graphics/SVG/1.1/DTD/svg11.dtd">
<!-- Creator: CorelDRAW 2021 (64-Bit) -->
<svg xmlns="http://www.w3.org/2000/svg" xml:space="preserve" width="35.0625mm" height="44.6248mm" version="1.1" style="shape-rendering:geometricPrecision; text-rendering:geometricPrecision; image-rendering:optimizeQuality; fill-rule:evenodd; clip-rule:evenodd"
viewBox="0 0 2785.08 3544.63"
 xmlns:xlink="http://www.w3.org/1999/xlink"
 xmlns:xodm="http://www.corel.com/coreldraw/odm/2003">
 <defs>
  <style type="text/css">
   <![CDATA[
    .fil0 {fill:#FEFEFE;fill-rule:nonzero}
   ]]>
  </style>
 </defs>
 <g id="Layer_x0020_1">
  <metadata id="CorelCorpID_0Corel-Layer"/>
  <g id="_2840619117360">
   <path class="fil0" d="M478.69 1012.75l0 1898.91c0,69.63 56.97,126.6 126.6,126.6l1582.42 0c69.63,0 126.6,-56.97 126.6,-126.59l0 -1898.91c0,-69.63 -56.97,-126.59 -126.59,-126.59l-1582.43 -0.01c-69.63,0 -126.59,56.97 -126.59,126.6l-0.01 0zm1432.09 -625.06l-134.5 0c0,-44.31 -7.91,-87.03 -21.36,-126.59 -16.61,-47.48 -41.92,-90.19 -74.36,-126.59 -69.63,-78.33 -170.91,-134.51 -284.05,-134.51 -113.14,0 -214.42,56.17 -284.05,134.51 -32.44,36.4 -57.75,79.12 -74.37,126.6 -13.45,39.56 -21.36,82.28 -21.36,126.6l-114.74 -0.02c-75.95,0 -138.47,62.5 -138.47,138.47l0.01 122.63c0,8.71 7.12,15.82 15.82,15.82l1234.28 0c8.71,0 15.82,-7.12 15.82,-15.82l0.01 -142.42c0,-65.67 -53.01,-118.68 -118.68,-118.68l-0.01 0zm-497.66 122.63c-83.08,10.29 -152.71,-59.34 -141.63,-141.63 7.12,-56.17 53.01,-102.07 109.19,-109.19 83.08,-10.29 152.71,59.34 141.63,141.63 -7.12,56.97 -53.01,102.07 -109.19,109.19z"/>
   <path class="fil0" d="M2531.88 126.59l-594.99 0c-13.45,0 -20.57,15.04 -12.66,25.32 22.95,30.86 41.93,64.09 55.39,101.28 2.38,6.33 7.91,10.29 15.04,10.29l3.96 -0.01c147.96,0 212.84,117.89 217.59,265.06l-0.01 120.27c0,8.71 7.12,15.82 15.82,15.82l160.62 0c69.63,0 126.6,56.97 126.6,126.6l0 2353.07c0,69.63 -56.97,126.6 -126.59,126.6l-2001.77 -0.01c-69.63,0 -126.59,-56.97 -126.59,-126.59l-0.01 -2353.07c0,-69.63 56.97,-126.59 126.6,-126.59l168.52 0c8.71,0 15.82,-7.12 15.82,-15.82l0 -69.63c0,-151.12 44.31,-290.38 218.37,-290.38l2.38 0c7.12,0 14.24,-4.75 15.04,-12.66 11.87,-54.59 32.44,-92.57 56.97,-125.01 7.91,-10.29 0.79,-25.32 -12.66,-25.32l-603.7 -0.79c-138.47,0.8 -251.62,113.15 -251.62,252.41l0 2724.15c0,329.94 113.14,443.08 253.19,443.08l2282.66 0c137.67,0 249.23,-111.56 249.23,-249.23l-0.01 -2915.63c0,-140.05 -113.14,-253.19 -253.19,-253.19l0 0.01z"/>
  </g>
 </g>
</svg>
