<?xml version="1.0" encoding="UTF-8"?>
<!DOCTYPE svg PUBLIC "-//W3C//DTD SVG 1.1//EN" "http://www.w3.org/Graphics/SVG/1.1/DTD/svg11.dtd">
<!-- Creator: CorelDRAW 2021 (64-Bit) -->
<svg xmlns="http://www.w3.org/2000/svg" xml:space="preserve" width="135.969mm" height="135.316mm" version="1.1" style="shape-rendering:geometricPrecision; text-rendering:geometricPrecision; image-rendering:optimizeQuality; fill-rule:evenodd; clip-rule:evenodd"
viewBox="0 0 14343.3 14274.44"
 xmlns:xlink="http://www.w3.org/1999/xlink"
 xmlns:xodm="http://www.corel.com/coreldraw/odm/2003">
 <defs>
  <style type="text/css">
   <![CDATA[
    .fil0 {fill:#2A2A2B}
   ]]>
  </style>
 </defs>
 <g id="Layer_x0020_1">
  <metadata id="CorelCorpID_0Corel-Layer"/>
  <path class="fil0" d="M11403.88 54.16c-595.32,184.37 -652.29,369.42 -1114.79,680.27 -3860.73,2594.87 -6474.15,5119.07 -9114.08,8917.61 -305.72,439.88 -447.14,735.19 -749.99,1072.61 -492.6,548.85 -689.71,1349.05 148.19,1725.44 384.41,172.68 320.04,-12.89 580.15,329.65 363.77,479.05 880.34,687.43 1493.5,745.07 446.66,41.98 202.51,227.9 943.76,462.61 208.77,66.1 503.72,104.53 769.52,89.41 504.06,-28.66 265.32,-134.65 718.74,74.33 420.34,193.72 1134.38,142.41 1519.97,-38.02 524.26,-245.34 1113.45,278.47 2070.21,-495.62 275.06,-222.56 1157.48,0.43 1796.94,-878.64 210.65,-289.59 231.13,-159.68 585.87,-325.8 334.68,-156.72 760.95,-580.48 918.41,-899.21 210.97,-427.05 31.7,-217.5 429.03,-481.87 312.92,-208.22 616.24,-648.35 762.36,-1053.69 146.05,-405.12 -79.81,-297.63 254.15,-608.96 316.14,-294.73 509.43,-820.49 560.72,-1255.33 57.02,-483.49 -152.76,-300.82 103.22,-699.42 236.37,-368.04 346.53,-1036.34 190.57,-1547.2 -197.82,-647.97 258.4,-480.19 -19.48,-1593.38 -82.24,-329.42 -140.35,-329.98 -266.67,-585.61 -117.04,-236.88 -23.44,-562.6 -82.35,-836.16 -142.92,-663.65 -543.48,-929.59 -682.17,-1120.39 -160.15,-220.36 14.63,-563.78 -587.58,-1235.57 -302.1,-337.01 -659.68,-618.2 -1228.19,-442.13zm-1011.58 11178.1c54.38,112.34 139.97,226.34 194.61,359.54l140.61 468.61c415.24,-102.4 1492.38,-957.64 588.79,-1742.8 -179.93,78.11 -832.67,730.88 -924,914.66zm1199.48 -1284.64c87.11,136.11 178.18,180.01 292.26,344.13 99.32,142.9 118.03,273.81 235.17,399.88 517.97,-273.4 1081.18,-1428.99 214.1,-1777.16l-741.53 1033.15zm-2639.96 2289.73c76.37,343.34 82.27,464.04 54.19,840.14 732.69,-89.43 1718.41,-831.45 1025.65,-1540.05 -201.07,82.79 -315.46,213.35 -518.05,354.02 -187.91,130.46 -369.85,234.15 -561.79,345.89zm2172.58 -11549.85l834.22 1000.9c274.54,-77.94 391.5,-129.16 760.45,-133.33 -59.55,-397.34 -494.76,-1098.25 -1027.39,-1108.82 -248.6,-4.93 -421.24,61.1 -567.28,241.24zm-3849.03 12224.04l-101.07 748.42c786.44,8.18 1575.96,-238.82 1400.49,-1188.12 -150.99,22.1 -1117.6,368.6 -1299.42,439.7zm5275.87 -4412.76l584.97 529.57c490.45,-494.36 651.42,-1589.94 -164.69,-1771.08l-420.28 1241.52zm-7333.71 5242.52c686.68,242.62 1624.59,79.97 1623.36,-764.58 -135.64,-17.36 -865.52,54.11 -1097.46,67.38 -291.8,16.71 -241.35,5.61 -333,256.96 -75.89,208.11 -158.59,270.31 -192.9,440.24zm7018.62 -11703.47l545.21 1214.61 742.14 60.03c-11.49,-681.8 -495.81,-1618.41 -1287.35,-1274.64zm-10711.42 10479.06c213.94,482.04 1417.93,899.35 1728.71,160.58 -121.67,-128.55 -360.09,-198.76 -573.4,-305.14 -190.35,-94.93 -374.92,-222.74 -570.33,-295.43l-584.98 440zm1771.08 856.43c692.72,515.61 1759.51,300.33 1725.83,-337.11l-1306.56 -231.78c-108.78,148.24 -385.22,464.25 -419.27,568.89zm9797.42 -6567.78c242.21,101.7 432.38,272.22 641.74,362.63 254.12,-552.22 336.99,-1673.33 -548.1,-1666.96l-93.64 1304.33zm75.19 -1811.58c122.03,59.84 217.18,63.18 367.75,118.71l216.04 79.59c292.46,38.08 274.04,-1594.7 -809.65,-1488.9 0.83,86.25 201.13,1213.46 225.86,1290.6zm-11448.33 6827.08c-70.54,-99.69 -840.24,-760.88 -948.55,-807.93 -922.4,799.82 276.29,1581.59 948.55,807.93zm-620.35 -1177.59c903.43,1102.53 2770.04,2019.85 4810.82,1976.95 2043.94,-42.97 3418.52,-999.98 4606.66,-2187.2 1105.51,-1104.64 2176.54,-2507.17 2211.09,-4606.37 17.77,-1080.12 -170.71,-2024.09 -551.83,-2841.24 -232.79,-499.12 -945.06,-1727.91 -1448.98,-1989.47 -1172,515.83 -4466.77,3421.72 -5358.31,4288.95 -742.95,722.69 -1530.22,1608.84 -2289.39,2527.52 -347.42,420.41 -1877.22,2435.46 -1980.06,2830.87z"/>
  <path class="fil0" d="M9272.98 8063.11c-528.38,381.24 -361.08,66.44 -799.42,96.31 -354.31,24.15 -283.48,390.88 137.04,472.01 1232.95,237.88 1142.26,-914.58 662.38,-568.32z"/>
  <path class="fil0" d="M7895.97 10647.74l-11.08 265.45c726.78,383.88 1443.59,-485.08 962.66,-600.33 -240.51,-57.63 -197.1,51.91 -293.1,134.7 -240.99,207.82 -364.95,40.78 -658.49,200.18z"/>
  <path class="fil0" d="M10632.11 2891.65c-130.48,97.23 -62.47,141.56 -236.93,181.16 -0.28,0.06 -745.08,-27.84 -456.63,368.43 63.36,87.03 213.89,95.68 359.43,88.99 891.73,-40.99 732.48,-935.41 334.13,-638.58z"/>
  <path class="fil0" d="M4990.51 9830.34c-241.33,721.34 1435.18,511.95 951.23,-125.28 -343.06,-42.41 -156.29,85.36 -413.6,126.77 -275.21,44.28 -237.35,-115.98 -537.63,-1.49z"/>
  <path class="fil0" d="M3085.19 9311.59c-304.47,158.38 -481.74,-154.03 -635.8,77.41 -162.17,243.62 126.99,371.18 336.38,412.57 769.06,152.04 787.56,-743.92 299.41,-489.98z"/>
  <path class="fil0" d="M6032.42 6682.49c-216,112 -461.02,-69.25 -487.43,222.56 -20.91,231.09 225.44,264.85 418.43,259.53 597.91,-16.5 568.06,-740.84 69,-482.09z"/>
  <path class="fil0" d="M11541.9 6217.69l5.78 -292.22 -657.41 -198.75c-406.17,337.48 203.17,736.08 651.63,490.97z"/>
  <path class="fil0" d="M8812.8 5255.3c8.47,-305.42 -33.77,-327.62 -300.06,-315.84 -164.95,7.3 -366.39,-81.15 -441.03,109 -124.78,317.87 417.95,480.36 741.09,206.83z"/>
 </g>
</svg>
